:SAMPLES-PER-SECOND 30
:FRAME-RANGE 1-744
:FULLY-SPECIFIED
:DEGREES
466
root  -21.544 38.0605 102.728 9.18813 -62.2743 -12.99
RightUpLeg  -8.65965 1.48951 4.94647
RightLeg  -3.50321 -16.4227 1.02289
RightFoot  6.88429 -0.928209 6.07601
RightToes  5.82063e-011 0 -3.6325e-017
Spine  14.0871 -0.342217 9.45004
Spine1  -0.121818 1.65768 -0.370474
HEad  -1.21777 -12.5235 -4.90766
LeftShoulder1  3.59656 -6.29875 -30.6844
LeftArm  23.2207 -17.6547 -35.75
LeftForeArm  -10.1916 -11.0343 -15.5644
LeftHand  -1.58953 -4.96508 17.993
RightShoulder  5.87435 3.44016 71.1565
RightArm  17.3022 -0.936486 -5.649
RightForeArm  3.64797 -5.50315 18.0381
RightHand  1.65543 19.3162 7.21044
LeftUpLeg  18.0037 11.4312 23.5636
LeftLeg  27.9077 5.00246 3.20279
LeftFoot  6.83604 0.510171 -3.44936
LeftToes  1.25507e-010 -3.78807e-010 5.71421e-011
467
root  -22.8988 38.2216 102.812 10.4933 -65.944 -14.6795
RightUpLeg  -6.77439 2.13542 6.6424
RightLeg  -2.45321 -13.3418 0.466492
RightFoot  4.73206 -0.792547 5.83764
RightToes  5.82063e-011 0 -3.6325e-017
Spine  14.1939 0.117198 10.4413
Spine1  0.162676 2.48602 -1.33438
HEad  -0.585812 -10.6915 -5.26372
LeftShoulder1  3.57564 -6.10843 -31.1975
LeftArm  26.3661 -14.611 -34.7948
LeftForeArm  -11.0586 -11.6714 -15.3751
LeftHand  -1.5445 -5.00265 17.4384
RightShoulder  7.30396 5.22338 70.5339
RightArm  13.8269 1.16373 -5.66472
RightForeArm  6.06308 -6.27153 17.4671
RightHand  1.5442 19.5003 6.63948
LeftUpLeg  15.0149 12.8695 22.4459
LeftLeg  34.4632 0.380101 0.633857
LeftFoot  0.115369 0.419477 -4.18881
LeftToes  1.25507e-010 -3.78807e-010 5.71421e-011
468
root  -24.234 38.3565 102.923 12.1446 -69.6328 -16.7957
RightUpLeg  -4.55309 2.27712 7.9542
RightLeg  -1.61328 -9.79771 0.172996
RightFoot  2.52711 -0.679698 5.72561
RightToes  5.82063e-011 0 -3.6325e-017
Spine  14.5234 0.410386 10.9827
Spine1  -0.199126 3.02774 -2.1449
HEad  0.427997 -8.03084 -5.6669
LeftShoulder1  3.50235 -5.83689 -31.4952
LeftArm  30.1286 -9.80221 -33.8492
LeftForeArm  -12.4679 -13.1645 -14.5382
LeftHand  -1.4922 -5.0283 16.8263
RightShoulder  8.73111 7.05024 69.8798
RightArm  9.83454 3.7067 -5.60031
RightForeArm  9.81554 -6.71048 16.7003
RightHand  1.47129 19.7654 6.22953
LeftUpLeg  12.0686 13.5831 20.5108
LeftLeg  38.656 -2.47627 -1.75556
LeftFoot  -3.85399 0.334888 -4.76366
LeftToes  1.25507e-010 -3.78807e-010 5.71421e-011
469
root  -25.5361 38.5011 103.051 13.8926 -73.2379 -18.8259
RightUpLeg  -2.33058 2.41828 8.85183
RightLeg  -1.04797 -6.34606 -0.312564
RightFoot  0.792348 -0.550772 5.22858
RightToes  5.82063e-011 0 -3.6325e-017
Spine  14.6986 0.648292 11.0817
Spine1  -0.617824 3.34988 -2.83723
HEad  0.765022 -5.21312 -6.04984
LeftShoulder1  3.44234 -5.54158 -32.0568
LeftArm  34.8312 -4.31084 -32.6536
LeftForeArm  -14.5387 -15.1985 -13.1556
LeftHand  -1.46106 -5.32399 16.0497
RightShoulder  10.0329 8.78788 69.1287
RightArm  6.31554 6.47539 -5.32678
RightForeArm  12.8323 -5.1238 15.9828
RightHand  1.37905 20.1825 5.70245
LeftUpLeg  8.69322 13.4992 17.6811
LeftLeg  40.8035 -2.55768 -1.98675
LeftFoot  -6.30279 0.235756 -4.49816
LeftToes  1.25507e-010 -3.78807e-010 5.71421e-011
470
root  -26.8047 38.6522 103.19 16.0374 -76.553 -21.2634
RightUpLeg  0.0668983 2.42027 9.38899
RightLeg  -0.789123 -3.0384 -0.750747
RightFoot  -0.744885 -0.408747 4.34975
RightToes  5.82063e-011 0 -3.6325e-017
Spine  15.0014 0.914271 11.2341
Spine1  -1.12948 3.6838 -3.68637
HEad  0.238487 -2.85731 -6.32423
LeftShoulder1  3.40347 -5.30614 -32.6316
LeftArm  40.45 0.937332 -31.7433
LeftForeArm  -17.3552 -17.0764 -11.7511
LeftHand  -1.42073 -5.48644 15.3969
RightShoulder  11.3519 10.6536 68.1353
RightArm  4.02881 8.72746 -4.84295
RightForeArm  14.0783 -2.46786 15.297
RightHand  1.15004 20.7129 4.56525
LeftUpLeg  5.0011 12.5481 14.6561
LeftLeg  41.4426 -0.786897 -0.360716
LeftFoot  -8.82216 0.129164 -3.46758
LeftToes  1.25507e-010 -3.78807e-010 5.71421e-011
